<?xml version="1.0" standalone="no"?>
<!DOCTYPE svg PUBLIC "-//W3C//DTD SVG 20010904//EN"
 "http://www.w3.org/TR/2001/REC-SVG-20010904/DTD/svg10.dtd">
<svg version="1.0" xmlns="http://www.w3.org/2000/svg"
 width="375.000000pt" height="375.000000pt" viewBox="0 0 375.000000 375.000000"
 preserveAspectRatio="xMidYMid meet">
<metadata>
Created by potrace 1.11, written by Peter Selinger 2001-2013
</metadata>
<g transform="translate(0.000000,375.000000) scale(0.100000,-0.100000)"
fill="#000000" stroke="none">
<path d="M1725 3630 c-46 -18 -93 -96 -111 -184 -2 -10 -5 -19 -6 -20 -2 0
-33 -16 -70 -34 -37 -19 -79 -35 -95 -38 -69 -10 -92 -16 -128 -37 -11 -6 -32
-17 -46 -24 -15 -7 -38 -28 -52 -46 -14 -17 -35 -42 -46 -54 -12 -13 -19 -23
-16 -23 3 0 -6 -17 -20 -37 -14 -21 -25 -43 -25 -50 0 -7 -6 -16 -13 -20 -31
-18 -92 -148 -105 -223 -8 -46 -8 -177 0 -215 16 -82 78 -202 125 -247 l23
-21 -94 -97 c-118 -122 -135 -155 -140 -282 -4 -80 -17 -198 -22 -198 -1 0
-19 9 -38 21 -46 27 -137 60 -148 53 -4 -3 -30 -7 -56 -10 -56 -5 -117 -30
-152 -61 -14 -13 -28 -23 -33 -23 -17 0 -47 -67 -47 -108 0 -28 -7 -53 -22
-72 -19 -26 -20 -33 -9 -69 21 -71 117 -180 218 -247 28 -19 55 -44 59 -57 19
-63 48 -108 107 -162 106 -99 135 -114 249 -130 29 -4 43 0 65 19 15 13 44 28
64 35 47 15 97 65 104 104 4 18 8 41 10 52 2 11 4 28 4 38 2 34 35 16 105 -56
71 -72 115 -109 165 -137 14 -8 28 -18 31 -21 17 -22 234 -105 295 -114 11 -2
38 -6 60 -10 53 -10 105 -16 132 -15 20 0 22 -5 21 -38 -1 -41 4 -68 15 -78
11 -11 8 -41 -5 -56 -14 -14 -37 -72 -42 -103 -2 -11 -8 -31 -13 -45 -24 -59
-1 -125 64 -185 46 -44 178 -111 245 -126 82 -17 119 -4 199 73 53 52 68 74
84 123 10 33 19 65 19 71 1 13 31 44 44 44 23 0 83 92 90 139 2 14 8 34 15 45
6 12 12 29 14 39 2 9 30 43 63 74 81 76 161 176 195 243 27 56 29 61 44 137 9
45 -2 133 -21 171 -9 18 -9 34 1 70 18 64 31 129 36 177 4 41 19 120 40 215
12 53 15 78 19 173 9 194 -52 278 -206 291 -47 4 -62 9 -82 33 -14 15 -26 36
-26 45 0 9 -4 19 -9 23 -5 3 -17 29 -25 58 -8 29 -29 73 -45 98 -28 42 -30 51
-27 117 2 39 -2 100 -9 136 -6 37 -10 66 -7 66 2 0 0 6 -6 13 -6 6 -10 14 -10
17 0 21 -20 74 -44 124 -30 59 -78 110 -284 306 -107 102 -160 145 -204 168
-14 7 -32 25 -41 40 -33 57 -136 84 -196 51 -31 -18 -32 -17 -38 1 -12 36 -71
72 -123 75 -26 1 -57 -1 -67 -5z"/>
</g>
</svg>
